<svg width="20" height="20" viewBox="0 0 20 20" fill="none" xmlns="http://www.w3.org/2000/svg">
<path d="M9.99988 -0.00012207C4.48988 -0.00012207 -0.00012207 4.48988 -0.00012207 9.99988C-0.00012207 15.5099 4.48988 19.9999 9.99988 19.9999C15.5099 19.9999 19.9999 15.5099 19.9999 9.99988C19.9999 4.48988 15.5099 -0.00012207 9.99988 -0.00012207ZM12.7899 10.5299L9.25988 14.0599C9.10988 14.2099 8.91988 14.2799 8.72988 14.2799C8.53988 14.2799 8.34988 14.2099 8.19988 14.0599C7.90988 13.7699 7.90988 13.2899 8.19988 12.9999L11.1999 9.99988L8.19988 6.99988C7.90988 6.70988 7.90988 6.22988 8.19988 5.93988C8.48988 5.64988 8.96988 5.64988 9.25988 5.93988L12.7899 9.46988C13.0899 9.75988 13.0899 10.2399 12.7899 10.5299Z" fill="#1D314C"/>
</svg>
